<svg xmlns="http://www.w3.org/2000/svg" viewBox="0 0 1440 3384" fill="none" preserveAspectRatio="xMidYMid slice">
<g filter="url(#filter0_f_1494_1403)">
<path d="M720 299C720 528.75 538.228 715 314 715C89.7724 715 -92 528.75 -92 299C-92 69.2495 89.7724 -117 314 -117C538.228 -117 720 69.2495 720 299Z" fill="#F1911B" fill-opacity="0.2"/>
<path d="M1158.35 3305.57C1081.9 3552.48 823.623 3691.85 581.466 3616.88C339.308 3541.9 204.971 3280.97 281.415 3034.06C357.86 2787.16 616.138 2647.78 858.296 2722.75C1100.45 2797.73 1234.79 3058.66 1158.35 3305.57Z" fill="#3A8282" fill-opacity="0.2"/>
<path d="M818.821 1903.24C782.692 2019.93 657.278 2084.77 538.702 2048.05C420.125 2011.34 353.288 1886.98 389.418 1770.29C425.547 1653.6 550.96 1588.76 669.537 1625.47C788.113 1662.19 854.95 1786.55 818.821 1903.24Z" fill="#3A8282" fill-opacity="0.2"/>
<path d="M1299.46 645.25C1272.09 702.092 1186.58 735.561 1108.45 720.006C1030.33 704.451 989.185 645.763 1016.55 588.921C1043.92 532.079 1129.43 498.61 1207.56 514.164C1285.68 529.719 1326.83 588.408 1299.46 645.25Z" fill="#3A8282" fill-opacity="0.5"/>
<path d="M1930 2736C1930 2965.75 1748.23 3152 1524 3152C1299.77 3152 1118 2965.75 1118 2736C1118 2506.25 1299.77 2320 1524 2320C1748.23 2320 1930 2506.25 1930 2736Z" fill="#F1911B" fill-opacity="0.2"/>
<path d="M1624 1511C1624 1735.23 1445.81 1917 1226 1917C1006.19 1917 828 1735.23 828 1511C828 1286.77 1006.19 1105 1226 1105C1445.81 1105 1624 1286.77 1624 1511Z" fill="#F2CD5C" fill-opacity="0.3"/>
<path d="M516 2057.5C516 2236.72 372.283 2382 195 2382C17.7166 2382 -126 2236.72 -126 2057.5C-126 1878.28 17.7166 1733 195 1733C372.283 1733 516 1878.28 516 2057.5Z" fill="#F1911B" fill-opacity="0.2"/>
</g>
<defs>
<filter id="filter0_f_1494_1403" x="-526" y="-517" width="2856" height="4554.16" filterUnits="userSpaceOnUse" color-interpolation-filters="sRGB">
<feFlood flood-opacity="0" result="BackgroundImageFix"/>
<feBlend mode="normal" in="SourceGraphic" in2="BackgroundImageFix" result="shape"/>
<feGaussianBlur stdDeviation="200" result="effect1_foregroundBlur_1494_1403"/>
</filter>
</defs>
</svg>
