<?xml version="1.0" encoding="UTF-8"?>
<svg width="64" height="64" viewBox="0 0 64 64" fill="none" xmlns="http://www.w3.org/2000/svg">
  <circle cx="32" cy="32" r="28" fill="#90EE90" opacity="0.2"/>
  <circle cx="32" cy="32" r="24" fill="#90EE90"/>
  <path d="M32 16C24.3 16 18 22.3 18 30C18 37.7 24.3 44 32 44C39.7 44 46 37.7 46 30C46 22.3 39.7 16 32 16ZM32 20C35.3 20 38.3 21.3 40.5 23.5L23.5 40.5C21.3 38.3 20 35.3 20 32C20 23.2 27.2 16 32 16ZM32 44C28.7 44 25.7 42.7 23.5 40.5L40.5 23.5C42.7 25.7 44 28.7 44 32C44 40.8 36.8 44 32 44Z" fill="white"/>
</svg>
