<svg width="70" height="70" viewBox="0 0 70 70" fill="none" xmlns="http://www.w3.org/2000/svg">
<g id="file-heart-02">
<path id="Icon" d="M58.3334 29.1663V19.833C58.3334 14.9325 58.3334 12.4823 57.3797 10.6106C56.5408 8.96417 55.2022 7.62559 53.5558 6.7867C51.6841 5.83301 49.2339 5.83301 44.3334 5.83301H25.6667C20.7663 5.83301 18.3161 5.83301 16.4443 6.7867C14.7979 7.62559 13.4593 8.96417 12.6204 10.6106C11.6667 12.4823 11.6667 14.9325 11.6667 19.833V50.1663C11.6667 55.0668 11.6667 57.517 12.6204 59.3888C13.4593 61.0352 14.7979 62.3738 16.4443 63.2126C18.3161 64.1663 20.7663 64.1663 25.6667 64.1663H35.0001M36.4584 32.083H23.3334M26.2501 43.7497H23.3334M46.6667 20.4163H23.3334M49.5754 43.2556C47.2428 40.6043 43.3531 39.8912 40.4306 42.3189C37.508 44.7466 37.0965 48.8057 39.3916 51.677C41.6867 54.5483 49.5754 61.2497 49.5754 61.2497C49.5754 61.2497 57.4641 54.5483 59.7592 51.677C62.0543 48.8057 61.6931 44.7211 58.7203 42.3189C55.7475 39.9167 51.908 40.6043 49.5754 43.2556Z" stroke="white" strokeWidth="2" stroke-linecap="round" stroke-linejoin="round"/>
</g>
</svg>
