<svg width="30" height="30" viewBox="0 0 16 17" fill="none" xmlns="http://www.w3.org/2000/svg">
<g id="mail-02">
<path id="Icon" d="M14.3332 12.5003L9.90468 8.50033M6.09516 8.50033L1.66661 12.5003M1.33325 5.16699L6.77653 8.97729C7.21731 9.28583 7.4377 9.44011 7.67743 9.49986C7.88918 9.55265 8.11066 9.55265 8.32241 9.49986C8.56213 9.44011 8.78252 9.28583 9.2233 8.97729L14.6666 5.16699M4.53325 13.8337H11.4666C12.5867 13.8337 13.1467 13.8337 13.5746 13.6157C13.9509 13.4239 14.2569 13.118 14.4486 12.7416C14.6666 12.3138 14.6666 11.7538 14.6666 10.6337V6.36699C14.6666 5.24689 14.6666 4.68683 14.4486 4.25901C14.2569 3.88269 13.9509 3.57673 13.5746 3.38498C13.1467 3.16699 12.5867 3.16699 11.4666 3.16699H4.53325C3.41315 3.16699 2.85309 3.16699 2.42527 3.38498C2.04895 3.57673 1.74299 3.88269 1.55124 4.25901C1.33325 4.68683 1.33325 5.24689 1.33325 6.36699V10.6337C1.33325 11.7538 1.33325 12.3138 1.55124 12.7416C1.74299 13.118 2.04895 13.4239 2.42527 13.6157C2.85309 13.8337 3.41315 13.8337 4.53325 13.8337Z" stroke="#FEC400" stroke-linecap="round" stroke-linejoin="round"/>
</g>
</svg>
