<svg width="16" height="17" viewBox="0 0 16 17" fill="none" xmlns="http://www.w3.org/2000/svg">
<g id="phone-call-01">
<path id="Icon" d="M9.36636 4.49967C10.0175 4.62672 10.616 4.94518 11.0851 5.4143C11.5542 5.88342 11.8726 6.48185 11.9997 7.13301M9.36636 1.83301C10.7192 1.9833 11.9808 2.58912 12.9439 3.55101C13.907 4.5129 14.5144 5.77368 14.6664 7.12634M6.81768 9.74172C6.01663 8.94067 5.3841 8.03491 4.9201 7.06849C4.88019 6.98537 4.86024 6.9438 4.84491 6.89121C4.79042 6.70431 4.82956 6.4748 4.9429 6.31652C4.97479 6.27197 5.0129 6.23387 5.0891 6.15766C5.32217 5.92459 5.43871 5.80806 5.5149 5.69087C5.80223 5.24894 5.80223 4.67922 5.5149 4.2373C5.43871 4.12011 5.32218 4.00358 5.0891 3.7705L4.95919 3.64059C4.6049 3.2863 4.42775 3.10915 4.23749 3.01292C3.85912 2.82154 3.41228 2.82154 3.0339 3.01292C2.84365 3.10915 2.6665 3.2863 2.31221 3.64059L2.20712 3.74568C1.85403 4.09876 1.67749 4.2753 1.54266 4.51533C1.39305 4.78166 1.28547 5.19532 1.28638 5.50081C1.2872 5.7761 1.3406 5.96425 1.44741 6.34055C2.02139 8.36281 3.10437 10.2711 4.69636 11.863C6.28835 13.455 8.19659 14.538 10.2189 15.112C10.5951 15.2188 10.7833 15.2722 11.0586 15.273C11.3641 15.2739 11.7777 15.1664 12.0441 15.0167C12.2841 14.8819 12.4606 14.7054 12.8137 14.3523L12.9188 14.2472C13.2731 13.8929 13.4503 13.7158 13.5465 13.5255C13.7379 13.1471 13.7379 12.7003 13.5465 12.3219C13.4503 12.1317 13.2731 11.9545 12.9188 11.6002L12.7889 11.4703C12.5558 11.2372 12.4393 11.1207 12.3221 11.0445C11.8802 10.7572 11.3105 10.7572 10.8685 11.0445C10.7513 11.1207 10.6348 11.2372 10.4017 11.4703C10.3255 11.5465 10.2874 11.5846 10.2429 11.6165C10.0846 11.7298 9.85509 11.769 9.66819 11.7145C9.6156 11.6992 9.57403 11.6792 9.49091 11.6393C8.52449 11.1753 7.61873 10.5428 6.81768 9.74172Z" stroke="#FEC400" stroke-linecap="round" stroke-linejoin="round"/>
</g>
</svg>
