<svg width="70" height="70" viewBox="0 0 70 70" fill="none" xmlns="http://www.w3.org/2000/svg">
<g id="repeat-02">
<path id="Icon" d="M32.0834 5.83301L40.8334 14.583M40.8334 14.583L32.0834 23.333M40.8334 14.583H19.8334C14.9329 14.583 12.4827 14.583 10.611 15.5367C8.96454 16.3756 7.62596 17.7142 6.78707 19.3606C5.83337 21.2323 5.83337 23.6825 5.83337 28.583V45.208C5.83337 46.5626 5.83337 47.2398 5.90823 47.8084C6.42515 51.7349 9.51485 54.8246 13.4413 55.3415C14.0099 55.4163 14.6871 55.4163 16.0417 55.4163M29.1667 55.4163H50.1667C55.0672 55.4163 57.5174 55.4163 59.3891 54.4626C61.0355 53.6238 62.3741 52.2852 63.213 50.6388C64.1667 48.767 64.1667 46.3168 64.1667 41.4163V24.7913C64.1667 23.4368 64.1667 22.7595 64.0918 22.1909C63.5749 18.2645 60.4852 15.1748 56.5588 14.6579C55.9902 14.583 55.3129 14.583 53.9584 14.583M29.1667 55.4163L37.9167 64.1663M29.1667 55.4163L37.9167 46.6663" stroke="white" strokeWidth="2" stroke-linecap="round" stroke-linejoin="round"/>
</g>
</svg>
