<svg width="70" height="70" viewBox="0 0 70 70" fill="none" xmlns="http://www.w3.org/2000/svg">
<g id="send-01">
<path id="Icon" d="M30.6236 39.375L61.2486 8.75002M30.9957 40.3319L38.661 60.0427C39.3363 61.7791 39.6739 62.6474 40.1604 62.9008C40.5822 63.1206 41.0846 63.1209 41.5066 62.9016C41.9934 62.6487 42.332 61.7809 43.0094 60.0453L62.2312 10.7893C62.8426 9.22257 63.1483 8.43918 62.9811 7.9386C62.8359 7.50387 62.4947 7.16271 62.06 7.01749C61.5594 6.85026 60.776 7.15597 59.2092 7.76739L9.95331 26.9892C8.21768 27.6665 7.34986 28.0052 7.09696 28.492C6.87772 28.914 6.87802 29.4164 7.09775 29.8382C7.35123 30.3247 8.21944 30.6623 9.95586 31.3376L29.6667 39.0029C30.0192 39.14 30.1954 39.2085 30.3438 39.3144C30.4754 39.4082 30.5904 39.5232 30.6842 39.6548C30.7901 39.8032 30.8586 39.9794 30.9957 40.3319Z" stroke="white" strokeWidth="2" stroke-linecap="round" stroke-linejoin="round"/>
</g>
</svg>
