<svg width="40" height="41" viewBox="0 0 40 41" fill="none" xmlns="http://www.w3.org/2000/svg">
<g id="Shopping cart" clip-path="url(#clip0_862_5869)">
<path id="Icon" d="M38.3333 2.1665H31.6666L27.1999 24.4832C27.0475 25.2505 26.6301 25.9398 26.0207 26.4303C25.4113 26.9209 24.6488 27.1815 23.8666 27.1665H7.66659C6.88442 27.1815 6.12189 26.9209 5.5125 26.4303C4.9031 25.9398 4.48566 25.2505 4.33326 24.4832L1.66659 10.4998H29.9999M23.3333 35.4998C23.3333 36.4203 24.0794 37.1665 24.9999 37.1665C25.9204 37.1665 26.6666 36.4203 26.6666 35.4998C26.6666 34.5794 25.9204 33.8332 24.9999 33.8332C24.0794 33.8332 23.3333 34.5794 23.3333 35.4998ZM4.99992 35.4998C4.99992 36.4203 5.74611 37.1665 6.66659 37.1665C7.58706 37.1665 8.33325 36.4203 8.33325 35.4998C8.33325 34.5794 7.58706 33.8332 6.66659 33.8332C5.74611 33.8332 4.99992 34.5794 4.99992 35.4998Z" stroke="#F4DD94" stroke-width="3.5" stroke-linecap="round" stroke-linejoin="round"/>
</g>
<defs>
<clipPath id="clip0_862_5869">
<rect width="40" height="40" fill="white" transform="matrix(-1 0 0 1 40 0.5)"/>
</clipPath>
</defs>
</svg>
