<svg width="70" height="70" viewBox="0 0 70 70" fill="none" xmlns="http://www.w3.org/2000/svg">
<g id="wallet-05">
<path id="Icon" d="M55.4167 29.167L14.5834 29.167M55.4167 29.167L60.8538 38.2288C62.0723 40.2597 62.6816 41.2752 62.998 42.3683C63.2784 43.3369 63.3893 44.3466 63.3257 45.353C63.2539 46.4887 62.8794 47.6121 62.1305 49.859L61.5243 51.6775C60.3769 55.1199 59.8031 56.841 58.739 58.1135C57.7993 59.2372 56.5925 60.107 55.2293 60.6432C53.6856 61.2503 51.8713 61.2503 48.2427 61.2503L21.7573 61.2503C18.1288 61.2503 16.3145 61.2503 14.7708 60.6432C13.4076 60.107 12.2008 59.2372 11.2611 58.1135C10.1969 56.841 9.62321 55.1198 8.47576 51.6775L7.86959 49.859C7.12063 47.6121 6.74615 46.4887 6.6744 45.353C6.61081 44.3466 6.72166 43.3369 7.00204 42.3683C7.31845 41.2752 7.92772 40.2597 9.14625 38.2288L14.5834 29.167M55.4167 29.167L56.6337 24.9074C57.2107 22.8879 57.4992 21.8782 57.2726 21.0793C57.0741 20.3795 56.6212 19.7792 56.0029 19.396C55.297 18.9587 54.2469 18.9587 52.1466 18.9587L17.8534 18.9587C15.7532 18.9587 14.703 18.9587 13.9972 19.396C13.3788 19.7792 12.926 20.3795 12.7275 21.0793C12.5008 21.8782 12.7893 22.8879 13.3663 24.9074L14.5834 29.167M35 18.9587H24.6875C23.1681 18.9587 21.7108 18.3441 20.6364 17.2501C19.562 16.1562 18.9584 14.6724 18.9584 13.1253C18.9584 11.5782 19.562 10.0945 20.6364 9.00054C21.7108 7.90657 23.1681 7.29199 24.6875 7.29199C32.7084 7.29199 35 18.9587 35 18.9587ZM35 18.9587H45.3125C46.832 18.9587 48.2892 18.3441 49.3637 17.2501C50.4381 16.1562 51.0417 14.6724 51.0417 13.1253C51.0417 11.5782 50.4381 10.0945 49.3637 9.00054C48.2892 7.90657 46.832 7.29199 45.3125 7.29199C37.2917 7.29199 35 18.9587 35 18.9587Z" stroke="white" strokeWidth="2" stroke-linecap="round" stroke-linejoin="round"/>
</g>
</svg>
