<svg xmlns="http://www.w3.org/2000/svg" width="24" height="24" viewBox="0 0 24 24" fill="currentColor">
  <path d="M12.206 3c.262 0 1.044.034 1.759.357 1.072.484 1.203.983 1.282 1.197.106.281.118.682.103 1.25-.015.556-.008 1.197.083 1.653.161.806.584 1.22.779 1.463a.49.49 0 0 0 .112.113c.172.133.42.201.725.201.264 0 .577-.05.881-.143l.073-.024c.252-.082.532-.176.88-.176.206 0 .415.023.618.069.705.157 1.111.611 1.111 1.236 0 .233-.055.418-.167.557-.143.176-.365.271-.63.271-.189 0-.375-.045-.557-.091l-.119-.029c-.252-.063-.464-.099-.628-.099-.118 0-.193.015-.23.025.046.405.187 1.052.474 1.697.464 1.04 1.312 2.076 2.379 2.907.246.191.508.352.775.478l.157.073c.159.071.318.146.478.223.247.118.47.249.657.391.336.255.337.498.337.521 0 .147-.075.338-.213.545-.258.386-.677.677-1.237.862-.08.027-.195.088-.19.287l.007.119c.011.217.082.506-.042.826-.133.343-.364.563-.682.647a2.07 2.07 0 0 1-.44.047c-.208 0-.458-.033-.723-.068-.37-.05-.831-.112-1.361-.112-.315 0-.638.025-.958.074-.642.099-1.209.47-1.853.878-.964.611-2.057 1.304-3.574 1.304-.046 0-.091-.001-.136-.003l-.017.003c-1.517 0-2.609-.692-3.573-1.303-.645-.409-1.212-.779-1.854-.878a6.76 6.76 0 0 0-.956-.074c-.531 0-.992.062-1.362.112-.264.035-.514.068-.722.068-.141 0-.291-.014-.441-.046-.316-.085-.547-.305-.68-.647-.124-.32-.054-.609-.042-.826l.007-.119c.005-.199-.109-.26-.19-.287-.561-.185-.979-.476-1.238-.862-.136-.207-.212-.398-.212-.545 0-.023.001-.266.337-.521.187-.142.41-.273.657-.391.159-.076.318-.151.477-.223l.157-.073c.267-.126.529-.287.776-.478 1.067-.831 1.914-1.867 2.379-2.907.287-.645.428-1.292.474-1.697-.037-.01-.112-.025-.23-.025-.164 0-.376.036-.628.099l-.119.029c-.183.045-.368.091-.557.091-.265 0-.487-.095-.63-.271-.112-.139-.167-.324-.167-.557 0-.625.406-1.079 1.111-1.236.204-.045.412-.069.618-.069.349 0 .629.094.881.176l.073.024c.305.093.618.143.882.143.305 0 .553-.068.725-.201a.478.478 0 0 0 .112-.113c.195-.243.618-.657.779-1.463.091-.456.098-1.097.083-1.653-.015-.568-.003-.969.103-1.25.079-.214.21-.713 1.282-1.197C11.163 3.034 11.944 3 12.206 3z"/>
</svg>
