<svg xmlns="http://www.w3.org/2000/svg" width="24" height="24" viewBox="0 0 24 24" fill="currentColor">
  <path d="M12.012 2c-5.506 0-9.989 4.478-9.99 9.984a9.964 9.964 0 001.333 4.993L2 22l5.233-1.237a9.994 9.994 0 004.779 1.217h.004c5.505 0 9.988-4.478 9.989-9.985 0-2.669-1.037-5.176-2.922-7.06A9.935 9.935 0 0012.012 2zm-.004 2c2.126 0 4.126.828 5.628 2.33A7.927 7.927 0 0119.97 12c-.001 4.4-3.579 7.978-7.979 7.978a7.98 7.98 0 01-3.816-.971l-.673-.367-.745.176L4.557 19.5l.686-2.321.192-.65-.378-.648a7.97 7.97 0 01-1.045-3.897c.001-4.4 3.579-7.978 7.978-7.978l.008-.006zm4.032 11.983c.175.161.262.317.295.466.033.15.02.29-.04.422-.059.132-.457.829-.793 1.432-.296.529-.593.67-.828.68-.234.01-.503-.016-.773-.042-.269-.026-.58-.06-.934-.155-.354-.094-1.02-.378-1.806-.946-.786-.569-1.441-1.27-1.937-2.111-.496-.842-.76-1.774-.796-2.791-.037-1.017.188-1.695.447-2.034.26-.34.569-.424.738-.448.17-.024.366.006.523.035.157.029.368.024.58.412.21.388.714 1.352.777 1.447.063.095.104.208.02.363-.084.155-.126.25-.249.387-.122.137-.26.305-.371.407-.112.102-.229.213-.099.416.13.203.577.867 1.242 1.405.665.538 1.224.705 1.399.784.174.078.273.065.372-.044.1-.109.42-.49.533-.658.112-.167.225-.139.38-.083.154.056.984.464 1.151.549.168.085.28.127.321.2.042.072.042.412-.133.811-.174.4-.68.687-.68.687z"/>
</svg>
