<?xml version="1.0" encoding="UTF-8" standalone="no"?>
<svg
   width="30.011719pt"
   height="49.230469pt"
   viewBox="0 0 30.011719 49.230468"
   version="1.1"
   id="svg104"
   sodipodi:docname="logo.svg"
   inkscape:version="1.1.2 (0a00cf5339, 2022-02-04)"
   xmlns:inkscape="http://www.inkscape.org/namespaces/inkscape"
   xmlns:sodipodi="http://sodipodi.sourceforge.net/DTD/sodipodi-0.dtd"
   xmlns="http://www.w3.org/2000/svg"
   xmlns:svg="http://www.w3.org/2000/svg">
  <sodipodi:namedview
     id="namedview106"
     pagecolor="#ffffff"
     bordercolor="#666666"
     borderopacity="1.0"
     inkscape:pageshadow="2"
     inkscape:pageopacity="0.0"
     inkscape:pagecheckerboard="0"
     inkscape:document-units="pt"
     showgrid="false"
     fit-margin-top="0"
     fit-margin-left="0"
     fit-margin-right="0"
     fit-margin-bottom="0"
     inkscape:zoom="3.6168078"
     inkscape:cx="-4.4237905"
     inkscape:cy="25.022065"
     inkscape:window-width="1440"
     inkscape:window-height="872"
     inkscape:window-x="0"
     inkscape:window-y="0"
     inkscape:window-maximized="1"
     inkscape:current-layer="surface1" />
  <defs
     id="defs35">
    <clipPath
       id="clip1">
      <path
         d="m 24,57 h 9 v 10.289063 h -9 z m 0,0"
         id="path2" />
    </clipPath>
    <clipPath
       id="clip2">
      <path
         d="m 39,57 h 7 v 10.289063 h -7 z m 0,0"
         id="path5" />
    </clipPath>
    <clipPath
       id="clip3">
      <path
         d="M 45,57 H 55 V 67.289063 H 45 Z m 0,0"
         id="path8" />
    </clipPath>
    <clipPath
       id="clip4">
      <path
         d="m 61,57 h 2 v 10.289063 h -2 z m 0,0"
         id="path11" />
    </clipPath>
    <clipPath
       id="clip5">
      <path
         d="m 56,57 h 4 v 10.289063 h -4 z m 0,0"
         id="path14" />
    </clipPath>
    <clipPath
       id="clip6">
      <path
         d="M 64,53 H 74 V 67.289063 H 64 Z m 0,0"
         id="path17" />
    </clipPath>
    <clipPath
       id="clip7">
      <path
         d="m 74,57 h 9.570313 V 67.289063 H 74 Z m 0,0"
         id="path20" />
    </clipPath>
    <clipPath
       id="clip8">
      <path
         d="M 0,57 H 6 V 67.289063 H 0 Z m 0,0"
         id="path23" />
    </clipPath>
    <clipPath
       id="clip9">
      <path
         d="m 11,57 h 8 v 10.289063 h -8 z m 0,0"
         id="path26" />
    </clipPath>
    <clipPath
       id="clip10">
      <path
         d="M 7,57 H 9 V 67.289063 H 7 Z m 0,0"
         id="path29" />
    </clipPath>
    <clipPath
       id="clip11">
      <path
         d="m 19,57 h 5 v 10.289063 h -5 z m 0,0"
         id="path32" />
    </clipPath>
  </defs>
  <g
     id="surface1"
     transform="translate(-26.997989,-8.3186501)">
    <g
       id="g1010"
       transform="translate(4.3456446,8.3147438)">
      <path
         style="fill:#f3f3f3;fill-opacity:1;fill-rule:evenodd;stroke:none"
         d="m 27.09375,37.609375 0.605469,0.605469 C 26.5,39.40625 25.902344,40.859375 25.902344,42.574219 c 0,1.699219 0.597656,3.152344 1.792969,4.355469 l -0.589844,0.582031 c -1.367188,-1.359375 -2.054688,-3.007813 -2.054688,-4.9375 0.01172,-1.945313 0.691407,-3.597656 2.042969,-4.964844"
         id="path37" />
      <path
         style="fill:#f3f3f3;fill-opacity:1;fill-rule:evenodd;stroke:none"
         d="m 25.394531,35.910156 0.609375,0.601563 c -1.671875,1.679687 -2.507812,3.695312 -2.507812,6.046875 0,2.375 0.828125,4.402344 2.488281,6.074219 l -0.59375,0.589843 c -1.824219,-1.835937 -2.738281,-4.050781 -2.738281,-6.636718 0,-2.605469 0.914062,-4.832032 2.742187,-6.675782"
         id="path39" />
      <path
         style="fill:#f3f3f3;fill-opacity:1;fill-rule:evenodd;stroke:none"
         d="m 46.902344,16.082031 v 8.613282 c -8.761719,1.222656 -14.09375,5.292968 -15.996094,12.207031 v -7.019531 c 0.613281,-3.167969 1.863281,-5.804688 3.753906,-7.90625 2.730469,-3.058594 6.8125,-5.027344 12.242188,-5.894532"
         id="path41" />
      <path
         style="fill:#f3f3f3;fill-opacity:1;fill-rule:evenodd;stroke:none"
         d="M 52.664063,0.00390625 V 8.644531 C 45.25,9.671875 39.667969,11.628906 35.921875,14.515625 c -2.480469,1.914063 -4.148437,4.242188 -5.003906,6.980469 -0.0078,0.01172 -0.01172,0.02344 -0.01172,0.04297 V 13.960938 C 32.890625,5.933594 40.144531,1.28125 52.664063,0.00390625"
         id="path43" />
      <path
         style="fill:#f3f3f3;fill-opacity:1;fill-rule:evenodd;stroke:none"
         d="m 34.066406,39.363281 c 0.863282,0 1.601563,0.304688 2.214844,0.921875 0.621094,0.613282 0.929688,1.359375 0.929688,2.234375 0,0.875 -0.308594,1.621094 -0.929688,2.238282 -0.613281,0.613281 -1.351562,0.917968 -2.214844,0.917968 -0.882812,0 -1.632812,-0.304687 -2.242187,-0.917968 -0.613281,-0.617188 -0.917969,-1.363282 -0.917969,-2.238282 0,-0.875 0.304688,-1.621093 0.917969,-2.234375 0.609375,-0.617187 1.359375,-0.921875 2.242187,-0.921875"
         id="path45" />
      <path
         style="fill:#f3f3f3;fill-opacity:1;fill-rule:evenodd;stroke:none"
         d="m 40.390625,38.214844 0.597656,-0.597656 c 1.367188,1.371093 2.050782,3.015625 2.050782,4.941406 -0.0078,1.941406 -0.691407,3.597656 -2.050782,4.96875 l -0.597656,-0.597656 c 1.195313,-1.191407 1.792969,-2.648438 1.792969,-4.371094 0,-1.691406 -0.597656,-3.140625 -1.792969,-4.34375"
         id="path47" />
      <path
         style="fill:#f3f3f3;fill-opacity:1;fill-rule:evenodd;stroke:none"
         d="m 42.101563,36.511719 0.59375,-0.589844 c 1.832031,1.835938 2.738281,4.050781 2.730468,6.636719 0,2.597656 -0.914062,4.820312 -2.742187,6.675781 l -0.59375,-0.601562 c 1.671875,-1.679688 2.507812,-3.699219 2.507812,-6.058594 0,-2.378906 -0.832031,-4.398438 -2.496093,-6.0625"
         id="path49" />
    </g>
    <g
       clip-path="url(#clip5)"
       clip-rule="nonzero"
       id="g73" />
  </g>
</svg>
